<?xml version="1.0" encoding="UTF-8" standalone="no"?>
<!-- Created with Inkscape (http://www.inkscape.org/) -->

<svg
   version="1.1"
   id="svg1"
   width="236.26283"
   height="322.69235"
   viewBox="0 0 236.26284 322.69236"
   sodipodi:docname="question-sign1.svg"
   inkscape:version="1.4.2 (f4327f4, 2025-05-13)"
   xmlns:inkscape="http://www.inkscape.org/namespaces/inkscape"
   xmlns:sodipodi="http://sodipodi.sourceforge.net/DTD/sodipodi-0.dtd"
   xmlns="http://www.w3.org/2000/svg"
   xmlns:svg="http://www.w3.org/2000/svg">
  <defs
     id="defs1" />
  <sodipodi:namedview
     id="namedview1"
     pagecolor="#ffffff"
     bordercolor="#000000"
     borderopacity="0.25"
     inkscape:showpageshadow="2"
     inkscape:pageopacity="0.0"
     inkscape:pagecheckerboard="0"
     inkscape:deskcolor="#d1d1d1"
     showgrid="false"
     inkscape:zoom="1.4628099"
     inkscape:cx="62.55085"
     inkscape:cy="116.5565"
     inkscape:window-width="1920"
     inkscape:window-height="1009"
     inkscape:window-x="-8"
     inkscape:window-y="-8"
     inkscape:window-maximized="1"
     inkscape:current-layer="g1" />
  <g
     inkscape:groupmode="layer"
     inkscape:label="Image"
     id="g1"
     transform="translate(-78.561377,-35.425278)">
    <path
       style="fill:#ffffff;fill-opacity:1;stroke:#ffffff;stroke-width:11.3386;stroke-dasharray:none;stroke-opacity:1"
       d="m 160.9087,351.93748 c -1.99078,-0.80461 -4.12931,-2.83304 -5.38327,-5.10609 -1.26277,-2.28904 -1.87166,-58.27165 -0.69541,-63.93764 0.78484,-3.78053 4.06161,-7.25952 7.41137,-7.86877 1.10782,-0.20149 15.89296,-0.28543 32.85586,-0.18654 34.56348,0.20151 32.35947,-0.0914 35.64637,4.73801 1.36932,2.01195 1.36932,2.01195 1.36932,34.08701 0,32.07505 0,32.07505 -1.36932,34.087 -3.29654,4.84363 -0.95141,4.54342 -36.55928,4.68001 -20.26414,0.0777 -32.30492,-0.10065 -33.27564,-0.49299 z m -2.05851,-95.06454 c -3.53134,-3.75495 -4.34254,-7.31841 -4.25105,-18.67414 0.0551,-6.83352 0.39195,-11.35163 1.05448,-14.1419 4.98206,-20.98222 22.73369,-40.36269 49.37725,-53.90797 20.88169,-10.61601 27.18664,-18.48888 26.35209,-32.90532 -1.23157,-21.27457 -37.17668,-32.58656 -61.34579,-19.30563 -4.20386,2.31003 -14.14884,12.16099 -22.79831,22.58277 -7.56297,9.11267 -9.0699,10.28914 -13.10132,10.22833 -3.88036,-0.0585 -3.11899,0.44013 -26.64044,-17.44861 C 81.251868,113.34021 81.337701,113.47049 87.603016,103.10648 97.488675,86.753736 112.48859,70.993092 127.74045,60.933456 159.27869,40.131845 203.8326,35.214613 238.19789,48.742721 c 58.74676,23.126022 85.65568,76.392169 63.00399,124.716289 -7.12062,15.19083 -18.31272,25.55058 -43.31323,40.09206 -15.1561,8.8155 -24.64686,20.89713 -26.45708,33.67954 -0.6661,4.70354 -2.85989,8.80519 -5.60464,10.4788 -1.8422,1.12329 -3.36467,1.17686 -33.50451,1.17904 -31.57461,0.002 -31.57461,0.002 -33.47223,-2.01551 z"
       id="path14" />
  </g>
</svg>
